<svg width="63" height="94" viewBox="0 0 63 94" fill="none" xmlns="http://www.w3.org/2000/svg">
<path d="M0.301178 46.8591C1.38241 52.877 2.37828 58.9091 3.45951 64.927C6.95928 69.949 10.516 74.9142 14.0015 79.9362C19.0235 83.4217 23.9886 86.9926 29.0107 90.4782C35.0286 91.5594 41.0607 92.5411 47.0786 93.6365C53.0965 92.5553 59.1286 91.5594 65.1465 90.4782C70.1685 86.9784 75.1337 83.4217 80.1557 79.9362C83.6412 74.9142 87.2121 69.949 90.6977 64.927C91.7789 58.9091 92.7605 52.877 93.856 46.8591C92.7748 40.8412 91.7789 34.8091 90.6977 28.7912C87.1979 23.7692 83.6412 18.804 80.1557 13.782C75.1337 10.2965 70.1685 6.72556 65.1465 3.24002C59.1286 2.15879 53.0965 1.17714 47.0786 0.0816879C41.0607 1.16292 35.0286 2.15879 29.0107 3.24002C23.9886 6.73979 19.0235 10.2965 14.0015 13.782C10.516 18.804 6.94505 23.7692 3.45951 28.7912C2.37828 34.8091 1.39663 40.8412 0.301178 46.8591ZM33.0368 52.6636C32.7381 50.7288 32.4535 48.7939 32.1832 46.8449C32.4535 44.91 32.7381 42.961 33.0368 41.0261C34.1892 39.447 35.3558 37.8678 36.5366 36.3029C38.1015 35.1221 39.6665 33.9555 41.2599 32.8031C43.1947 32.5044 45.1295 32.2198 47.0786 31.9495C49.0134 32.2198 50.9625 32.5044 52.8973 32.8031C54.4765 33.9555 56.0556 35.1221 57.6206 36.3029C58.8014 37.8678 59.968 39.4328 61.1203 41.0261C61.4191 42.961 61.7036 44.8958 61.9739 46.8449C61.7036 48.7797 61.4191 50.7288 61.1203 52.6636C59.968 54.2428 58.8014 55.8219 57.6206 57.3869C56.0556 58.5677 54.4907 59.7343 52.8973 60.8866C50.9625 61.1854 49.0276 61.4699 47.0786 61.7402C45.1438 61.4699 43.1947 61.1854 41.2599 60.8866C39.6807 59.7343 38.1015 58.5677 36.5366 57.3869C35.37 55.8219 34.2034 54.2428 33.0368 52.6636ZM18.6109 48.0399C18.5825 47.8407 18.5967 47.855 18.6252 48.0968C18.6679 48.3956 18.6679 48.3671 18.6109 48.0115C18.6109 48.0257 18.6109 48.0257 18.6109 48.0399ZM27.7872 67.815C27.6307 67.7012 27.6449 67.7012 27.8441 67.8577C28.0859 68.0427 28.0575 68.0284 27.7729 67.8008L27.7872 67.815ZM48.2594 75.3125C48.0602 75.341 48.0745 75.3267 48.3163 75.2983C48.6151 75.2556 48.5866 75.2556 48.2309 75.3125C48.2452 75.3125 48.2452 75.3125 48.2594 75.3125ZM68.0345 66.1505C67.9207 66.307 67.9207 66.2928 68.0772 66.0936C68.2622 65.8517 68.2479 65.8802 68.0203 66.1647L68.0345 66.1505ZM75.532 45.6783C75.5605 45.8775 75.5604 45.8632 75.5178 45.6214C75.4751 45.3226 75.4751 45.3511 75.532 45.7067C75.532 45.6925 75.532 45.6783 75.532 45.6783ZM66.37 25.9032C66.5265 26.017 66.5123 26.017 66.3131 25.8605C66.0712 25.6755 66.0997 25.6898 66.3842 25.9174C66.3842 25.9032 66.37 25.9032 66.37 25.9032ZM45.8978 18.3915C46.0969 18.363 46.0827 18.3772 45.8266 18.4057C45.5279 18.4484 45.5563 18.4484 45.912 18.3915H45.8978ZM26.1227 27.5677C26.2365 27.4112 26.2365 27.4254 26.08 27.6246C25.895 27.8664 25.9092 27.838 26.1369 27.5535C26.1227 27.5535 26.1227 27.5677 26.1227 27.5677ZM18.6109 45.7067C18.6536 45.3511 18.6679 45.3084 18.6252 45.6214C18.5967 45.8632 18.5967 45.8775 18.6109 45.6783C18.6109 45.6783 18.6109 45.6925 18.6109 45.7067ZM26.1369 66.1647C25.9092 65.8802 25.895 65.8517 26.08 66.0936C26.2365 66.2928 26.2365 66.307 26.1227 66.1505C26.1227 66.1505 26.1227 66.1647 26.1369 66.1647ZM45.9262 75.3125C45.5706 75.2698 45.5279 75.2556 45.8409 75.2983C46.0827 75.3267 46.0969 75.3267 45.912 75.3125C45.8978 75.3125 45.912 75.3125 45.9262 75.3125ZM66.3842 67.8008C66.0997 68.0284 66.0712 68.0427 66.3131 67.8577C66.5123 67.7012 66.5265 67.7012 66.37 67.815L66.3842 67.8008ZM75.532 48.0115C75.4893 48.3671 75.4751 48.4098 75.5178 48.0968C75.5462 47.855 75.5462 47.8407 75.532 48.0399C75.532 48.0257 75.532 48.0257 75.532 48.0115ZM68.0203 27.5535C68.2479 27.838 68.2622 27.8664 68.0772 27.6246C67.9207 27.4254 67.9207 27.4112 68.0345 27.5677L68.0203 27.5535ZM48.2309 18.3915C48.5866 18.4341 48.6293 18.4484 48.3163 18.4057C48.0745 18.3772 48.0602 18.3772 48.2594 18.3915C48.2452 18.3915 48.2452 18.3915 48.2309 18.3915ZM27.7729 25.9174C28.0575 25.6898 28.0859 25.6755 27.8441 25.8605C27.6449 26.017 27.6307 26.017 27.7872 25.9032C27.7872 25.9032 27.7729 25.9032 27.7729 25.9174ZM18.7532 46.8591C18.6821 47.044 18.6394 47.2432 18.6109 47.4566C18.5683 47.67 18.5825 47.8834 18.6252 48.0968C18.6252 48.2675 18.6679 48.424 18.739 48.5805C18.9097 48.9504 19.0235 49.235 19.3223 49.5195C19.9909 50.1739 20.8588 50.2308 21.7408 50.1597C23.946 49.9463 26.0231 49.1496 28.0859 48.4098C28.3278 50.1455 28.5839 51.8811 28.84 53.6168C23.5334 54.4277 15.5238 55.0964 14.7555 48.5378C14.6844 47.9403 14.6844 47.3855 14.7555 46.8733C14.6844 46.3612 14.6844 45.8063 14.7555 45.2088C15.5238 38.6503 23.5334 39.3189 28.84 40.1299C28.5696 41.8655 28.3278 43.6012 28.0859 45.3368C26.0088 44.597 23.946 43.8004 21.7408 43.587C20.8588 43.5016 19.9909 43.5727 19.3223 44.2272C19.0235 44.5117 18.9097 44.7962 18.739 45.1661C18.6679 45.3226 18.6252 45.4791 18.6252 45.6498C18.5825 45.8632 18.5683 46.0766 18.6109 46.29C18.6394 46.475 18.6821 46.6742 18.7532 46.8591ZM27.0474 26.8279C26.8624 26.9133 26.6917 27.0128 26.521 27.1551C26.3361 27.2689 26.1938 27.4254 26.08 27.6104C25.9662 27.7384 25.8666 27.8664 25.8239 28.0229C25.6958 28.4071 25.5678 28.6774 25.5678 29.1042C25.582 30.0289 26.1511 30.6976 26.834 31.2666C28.5412 32.6751 30.5756 33.5714 32.5531 34.5245C31.5003 35.9188 30.4476 37.3272 29.409 38.7356C25.0841 35.5631 18.9524 30.3703 23.0355 25.1776C23.4053 24.7081 23.8037 24.324 24.2163 24.011C24.5293 23.5984 24.9134 23.2001 25.3829 22.8302C30.5614 18.7329 35.7541 24.8788 38.9409 29.2038C37.5325 30.2423 36.124 31.2809 34.7298 32.3479C33.7908 30.3561 32.8946 28.3359 31.4719 26.6287C30.9028 25.9458 30.2342 25.3768 29.3094 25.3625C28.8969 25.3625 28.6123 25.4764 28.2282 25.6186C28.0717 25.6755 27.9294 25.7609 27.8156 25.8747C27.6307 25.9885 27.4884 26.1308 27.3604 26.3157C27.2323 26.4722 27.1327 26.6429 27.0474 26.8279ZM47.0786 18.5337C46.8936 18.4626 46.6945 18.4199 46.4811 18.3915C46.2677 18.3488 46.0543 18.363 45.8409 18.4057C45.6701 18.4057 45.5136 18.4484 45.3572 18.5195C44.9873 18.6902 44.7027 18.804 44.4182 19.1028C43.7638 19.7714 43.7069 20.6393 43.778 21.5213C43.9914 23.7265 44.7881 25.8036 45.5279 27.8664C43.7922 28.1083 42.0566 28.3644 40.3209 28.6205C39.51 23.3139 38.8413 15.3043 45.3998 14.536C45.9974 14.4649 46.5522 14.4649 47.0644 14.536C47.5765 14.4649 48.1314 14.4649 48.7289 14.536C55.2874 15.3043 54.6187 23.3139 53.8078 28.6205C52.0722 28.3502 50.3365 28.1083 48.6008 27.8664C49.3406 25.7893 50.1373 23.7265 50.3507 21.5213C50.4361 20.6393 50.365 19.7714 49.7105 19.1028C49.426 18.804 49.1415 18.6902 48.7716 18.5195C48.6151 18.4484 48.4586 18.4057 48.2879 18.4057C48.0745 18.363 47.8611 18.3488 47.6477 18.3915C47.4627 18.4199 47.2635 18.4626 47.0786 18.5337ZM67.1098 26.8279C67.0244 26.6429 66.9248 26.4722 66.7826 26.3015C66.6688 26.1166 66.5123 25.9743 66.3273 25.8605C66.1993 25.7467 66.0712 25.6471 65.9147 25.6044C65.5306 25.4764 65.2603 25.3483 64.8335 25.3483C63.9088 25.3625 63.2401 25.9316 62.6711 26.6145C61.2626 28.3217 60.3663 30.3561 59.4131 32.3336C58.0189 31.2809 56.6105 30.2281 55.202 29.1895C58.3746 24.8646 63.5673 18.7329 68.7601 22.816C69.2296 23.1859 69.6137 23.5842 69.9267 23.9968C70.3392 24.3098 70.7376 24.6939 71.1075 25.1634C75.2048 30.3419 69.0589 35.5346 64.7339 38.7214C63.6954 37.313 62.6426 35.9045 61.5898 34.5103C63.5816 33.5714 65.6018 32.6751 67.309 31.2524C67.9918 30.6833 68.5609 30.0289 68.5751 29.0899C68.5751 28.6774 68.4613 28.3928 68.3191 28.0087C68.2621 27.8522 68.1768 27.71 68.063 27.5961C67.9492 27.4112 67.7927 27.2689 67.6219 27.1409C67.4512 27.0128 67.2947 26.9133 67.1098 26.8279ZM75.404 46.8591C75.4751 46.6742 75.5178 46.475 75.5462 46.2616C75.5889 46.0482 75.5747 45.8348 75.532 45.6214C75.532 45.4506 75.4893 45.2942 75.4182 45.1377C75.2475 44.7678 75.1337 44.4832 74.8349 44.1987C74.1662 43.5443 73.2984 43.4874 72.4164 43.5585C70.2112 43.7719 68.1341 44.5686 66.0712 45.3084C65.8294 43.5727 65.5733 41.8371 65.3172 40.1014C70.6238 39.2905 78.6334 38.6218 79.4017 45.1803C79.4728 45.7779 79.4728 46.3327 79.4017 46.8449C79.4728 47.357 79.4728 47.9119 79.4017 48.5094C78.6334 55.0679 70.6238 54.3993 65.3172 53.5883C65.5875 51.8527 65.8294 50.117 66.0712 48.3814C68.1483 49.1211 70.2112 49.9178 72.4164 50.1312C73.2984 50.2166 74.1662 50.1455 74.8349 49.491C75.1337 49.2065 75.2475 48.922 75.4182 48.5521C75.4893 48.3956 75.532 48.2391 75.532 48.0684C75.5747 47.855 75.5889 47.6416 75.5462 47.4282C75.5178 47.2432 75.4751 47.044 75.404 46.8591ZM67.1098 66.8903C67.2947 66.8049 67.4655 66.7054 67.6362 66.5631C67.8211 66.4493 67.9634 66.2928 68.0772 66.1078C68.191 65.9798 68.2906 65.8517 68.3333 65.6953C68.4613 65.3111 68.5894 65.0408 68.5894 64.614C68.5751 63.6893 68.0061 63.0206 67.3232 62.4516C65.616 61.0431 63.5816 60.1468 61.6041 59.1936C62.6568 57.7994 63.7096 56.391 64.7482 54.9825C69.0731 58.1551 75.2048 63.3478 71.1217 68.5406C70.7518 69.0101 70.3535 69.3942 69.9409 69.7072C69.6279 70.1198 69.2438 70.5181 68.7743 70.888C63.5958 74.9853 58.403 68.8394 55.2163 64.5144C56.6247 63.4759 58.0331 62.4373 59.4274 61.3703C60.3663 63.3621 61.2626 65.3823 62.6853 67.0895C63.2543 67.7724 63.923 68.3414 64.8477 68.3556C65.2603 68.3556 65.5449 68.2418 65.929 68.0996C66.0855 68.0427 66.2277 67.9573 66.3415 67.8435C66.5265 67.7297 66.6688 67.5732 66.7968 67.4025C66.9106 67.2317 67.0244 67.0752 67.1098 66.8903ZM47.0786 75.1845C47.2635 75.2556 47.4627 75.2983 47.6761 75.3267C47.8895 75.3694 48.1029 75.3552 48.3163 75.3125C48.487 75.3125 48.6435 75.2698 48.8 75.1987C49.1699 75.028 49.4544 74.9142 49.739 74.6154C50.3934 73.9467 50.4503 73.0789 50.3792 72.1969C50.1658 69.9917 49.3691 67.9146 48.6293 65.8517C50.365 65.6099 52.1006 65.3538 53.8363 65.0977C54.6472 70.4043 55.3158 78.4139 48.7573 79.1822C48.1598 79.2533 47.605 79.2533 47.0928 79.1822C46.5807 79.2533 46.0258 79.2533 45.4283 79.1822C38.8698 78.4139 39.5384 70.4043 40.3494 65.0977C42.085 65.368 43.8207 65.6099 45.5563 65.8517C44.8165 67.9288 44.0198 69.9917 43.8064 72.1969C43.7211 73.0789 43.7922 73.9467 44.4466 74.6154C44.7312 74.9142 45.0157 75.028 45.3856 75.1987C45.5421 75.2698 45.6986 75.3125 45.8693 75.3125C46.0827 75.3552 46.2961 75.3694 46.5095 75.3267C46.6945 75.2983 46.8936 75.2556 47.0786 75.1845ZM27.0474 66.8903C27.1327 67.0752 27.2323 67.246 27.3746 67.4167C27.4884 67.6016 27.6449 67.7439 27.8299 67.8577C27.9579 67.9715 28.0859 68.0711 28.2424 68.1138C28.6265 68.2418 28.8969 68.3699 29.3237 68.3699C30.2484 68.3557 30.917 67.7866 31.4861 67.1037C32.8946 65.3965 33.7908 63.3621 34.744 61.3846C36.1382 62.4373 37.5467 63.4901 38.9551 64.5287C35.7826 68.8536 30.5898 74.9853 25.3971 70.9022C24.9276 70.5323 24.5435 70.134 24.2305 69.7214C23.8179 69.4084 23.4196 69.0243 23.0497 68.5548C18.9524 63.3763 25.0983 58.1836 29.4232 54.9968C30.4618 56.4052 31.5146 57.8137 32.5673 59.2079C30.5756 60.1468 28.5554 61.0431 26.8482 62.4658C26.1653 63.0349 25.5963 63.7035 25.582 64.6283C25.582 65.0408 25.6958 65.3254 25.8381 65.7095C25.895 65.866 25.9804 66.0082 26.0942 66.1221C26.208 66.307 26.3645 66.4493 26.5352 66.5773C26.6917 66.6911 26.8624 66.8049 27.0474 66.8903ZM9.50586 46.8591C9.40627 47.7127 9.43472 48.6374 9.59122 49.6475C10.6013 55.765 15.8794 57.4011 21.4563 57.4722C17.5582 61.4699 14.9831 66.3497 18.5967 71.4002C19.1942 72.2253 19.8344 72.894 20.5031 73.4346C21.0295 74.1032 21.7124 74.7434 22.5375 75.341C27.588 78.9545 32.4678 76.3795 36.4655 72.4814C36.5366 78.0583 38.1727 83.3364 44.2901 84.3465C45.3002 84.5172 46.225 84.5314 47.0786 84.4318C47.9322 84.5314 48.8569 84.503 49.867 84.3465C55.9845 83.3364 57.6206 78.0583 57.6917 72.4814C61.6894 76.3795 66.5692 78.9545 71.6197 75.341C72.4448 74.7434 73.1135 74.1032 73.6541 73.4346C74.3227 72.9082 74.9629 72.2253 75.5604 71.4002C79.174 66.3497 76.599 61.4699 72.7009 57.4722C78.2778 57.4011 83.5559 55.765 84.566 49.6475C84.7367 48.6374 84.7509 47.7127 84.6513 46.8591C84.7509 46.0055 84.7225 45.0808 84.566 44.0707C83.5559 37.9532 78.2778 36.3171 72.7009 36.246C76.599 32.2483 79.174 27.3685 75.5604 22.318C74.9629 21.4929 74.3227 20.8242 73.6541 20.2836C73.1277 19.615 72.4448 18.9748 71.6197 18.3772C66.5692 14.7636 61.6894 17.3387 57.6917 21.2368C57.6206 15.6599 55.9845 10.3818 49.867 9.37173C48.8569 9.20101 47.9322 9.18678 47.0786 9.28637C46.225 9.18678 45.3002 9.21523 44.2901 9.37173C38.1727 10.3818 36.5366 15.6599 36.4655 21.2368C32.4678 17.3387 27.588 14.7636 22.5375 18.3772C21.7124 18.9748 21.0437 19.615 20.5031 20.2836C19.8344 20.81 19.1942 21.4929 18.5967 22.318C14.9831 27.3685 17.5582 32.2483 21.4563 36.246C15.8794 36.3171 10.6013 37.9532 9.59122 44.0707C9.43472 45.0808 9.40627 46.0055 9.50586 46.8591ZM7.11577 63.4048C6.13413 57.899 5.22362 52.3648 4.24198 46.8591C5.22362 41.3391 6.13413 35.8192 7.11577 30.3134C10.3168 25.7182 13.5747 21.1657 16.7757 16.5704C21.3709 13.3694 25.9235 10.1115 30.5187 6.91051C36.0244 5.92886 41.5586 5.01835 47.0644 4.03671C52.5843 5.01835 58.1043 5.92886 63.61 6.91051C68.2052 10.1115 72.7578 13.3694 77.353 16.5704C80.554 21.1657 83.8119 25.7182 87.013 30.3134C87.9946 35.8192 88.9051 41.3534 89.8867 46.8591C88.9051 52.3648 87.9946 57.899 87.013 63.4048C83.8119 68 80.554 72.5525 77.353 77.1478C72.7578 80.3488 68.2052 83.6067 63.61 86.8077C58.1043 87.7893 52.5701 88.6998 47.0644 89.6815C41.5444 88.6998 36.0244 87.7893 30.5187 86.8077C25.9235 83.6067 21.3709 80.3488 16.7757 77.1478C13.5889 72.5525 10.3168 68 7.11577 63.4048Z" fill="white" fill-opacity="0.05"/>
</svg>
